#!OML:ASF C:\Vicon Data\Big\jianyuan-13\jianyuan\Session 1\Capture.male.ASF
:FULLY-SPECIFIED
:DEGREES
56
root -8.363841 17.679413 -20.148335 7.139080 12.300766 -0.341756
lowerback -10.631382 -0.042765 -0.255511 
upperback 2.485439 -0.069528 0.574500 
thorax 8.625848 -0.063948 0.742277 
lowerneck -8.002595 -2.271309 2.693747 
upperneck 0.364028 -3.213721 -2.327716 
head 1.389085 -1.648082 -1.304068 
rclavicle 0.000000 0.000000 
rhumerus -33.541636 -13.213371 -82.927856 
rradius 29.677333 
rwrist 30.342743 
rhand -17.417621 -16.123515 
rfingers 0.000000 
rthumb 8.832378 -45.918731 
lclavicle 0.000000 0.000000 
lhumerus -40.391872 31.981518 69.659187 
lradius 25.181831 
lwrist -57.039577 
lhand -20.366236 0.650227 
lfingers 0.000000 
lthumb 5.986216 30.545659 
rfemur -18.234459 1.114302 25.386431 
rtibia 27.612946 
rfoot -17.379441 -5.665094 
rtoes -26.517590 
lfemur -17.704079 6.320156 -15.491905 
ltibia 58.126879 
lfoot -8.422471 5.002763 
ltoes -38.375093 
57
root -8.372989 17.672386 -20.099682 7.052025 12.290864 -0.323776
lowerback -10.488434 0.025212 -0.283662 
upperback 2.536827 0.026811 0.554176 
thorax 8.597013 -0.018108 0.753500 
lowerneck -8.077230 -2.341834 2.871643 
upperneck 0.460030 -3.319338 -2.542491 
head 1.425536 -1.705220 -1.410342 
rclavicle 0.000000 0.000000 
rhumerus -33.145100 -13.068647 -83.173762 
rradius 29.789799 
rwrist 30.043614 
rhand -17.526956 -16.136467 
rfingers 0.000000 
rthumb 8.726847 -45.936051 
lclavicle 0.000000 0.000000 
lhumerus -40.629199 32.239078 69.266910 
lradius 25.056214 
lwrist -57.596949 
lhand -20.491904 0.575718 
lfingers 0.000000 
lthumb 5.864906 30.474557 
rfemur -17.998423 1.297146 25.447079 
rtibia 27.717774 
rfoot -17.618367 -5.840043 
rtoes -26.347755 
lfemur -18.456286 6.077528 -15.545345 
ltibia 58.289046 
lfoot -9.093135 4.713407 
ltoes -38.584324 
58
root -8.378885 17.664318 -20.050366 6.969387 12.268416 -0.319683
lowerback -10.318761 0.095667 -0.279331 
upperback 2.545189 0.120108 0.558106 
thorax 8.506129 0.027592 0.770945 
lowerneck -8.104542 -2.384334 2.940677 
upperneck 0.574338 -3.378928 -2.648196 
head 1.463397 -1.736961 -1.460831 
rclavicle 0.000000 0.000000 
rhumerus -32.853463 -12.991840 -83.272438 
rradius 30.032315 
rwrist 29.970787 
rhand -17.479484 -16.176975 
rfingers 0.000000 
rthumb 8.772661 -45.974584 
lclavicle 0.000000 0.000000 
lhumerus -40.993255 32.486295 68.854568 
lradius 24.977014 
lwrist -58.047868 
lhand -20.593333 0.359128 
lfingers 0.000000 
lthumb 5.766978 30.260668 
rfemur -17.787614 1.381063 25.516539 
rtibia 27.843953 
rfoot -17.863975 -5.913098 
rtoes -26.159947 
lfemur -19.167372 5.693952 -15.619649 
ltibia 58.367925 
lfoot -9.726950 4.515626 
ltoes -38.159137 
59
root -8.385782 17.657384 -20.001515 6.987566 12.230115 -0.270827
lowerback -10.318696 0.161974 -0.277685 
upperback 2.590687 0.213274 0.499505 
thorax 8.554095 0.074326 0.724358 
lowerneck -8.041481 -2.411377 2.875067 
upperneck 0.496621 -3.414135 -2.431398 
head 1.429467 -1.749646 -1.378315 
rclavicle 0.000000 0.000000 
rhumerus -32.382710 -12.909394 -83.556878 
rradius 30.066138 
rwrist 29.734589 
rhand -17.547116 -16.300567 
rfingers 0.000000 
rthumb 8.707416 -46.101020 
lclavicle 0.000000 0.000000 
lhumerus -41.144350 32.593985 68.578868 
lradius 24.915189 
lwrist -58.131469 
lhand -20.487437 0.216212 
lfingers 0.000000 
lthumb 5.869248 30.114936 
rfemur -17.702993 1.426485 25.536566 
rtibia 28.016732 
rfoot -18.143905 -5.929250 
rtoes -25.695095 
lfemur -19.981592 5.321230 -15.776587 
ltibia 58.344625 
lfoot -10.323620 4.626765 
ltoes -39.647650 
60
root -8.391358 17.650249 -19.954280 6.997348 12.228427 -0.199884
lowerback -10.261233 0.199479 -0.295411 
upperback 2.605924 0.267877 0.474088 
thorax 8.536441 0.100709 0.716596 
lowerneck -8.030018 -2.451439 2.755485 
upperneck 0.552409 -3.457136 -2.365275 
head 1.446642 -1.769813 -1.338582 
rclavicle 0.000000 0.000000 
rhumerus -31.995217 -12.694059 -83.706134 
rradius 30.157739 
rwrist 29.550654 
rhand -17.630249 -16.182769 
rfingers 0.000000 
rthumb 8.627143 -45.986564 
lclavicle 0.000000 0.000000 
lhumerus -41.350812 32.599266 68.399798 
lradius 24.842949 
lwrist -58.412301 
lhand -20.440660 0.226918 
lfingers 0.000000 
lthumb 5.914392 30.124373 
rfemur -17.599392 1.449889 25.536822 
rtibia 28.178305 
rfoot -18.306260 -5.984547 
rtoes -25.896313 
lfemur -20.754315 4.870963 -15.909444 
ltibia 58.234875 
lfoot -10.848243 4.411281 
ltoes -38.892135 
61
root -8.398748 17.642770 -19.905875 6.915161 12.184811 -0.233873
lowerback -10.105961 0.305550 -0.254800 
upperback 2.629929 0.405705 0.455677 
thorax 8.470597 0.170511 0.697048 
lowerneck -8.144042 -2.501933 2.820923 
upperneck 0.714464 -3.530833 -2.393043 
head 1.515896 -1.806969 -1.366743 
rclavicle 0.000000 0.000000 
rhumerus -31.681033 -12.571022 -83.866278 
rradius 30.381064 
rwrist 29.269967 
rhand -17.470287 -16.083929 
rfingers 0.000000 
rthumb 8.781572 -45.881236 
lclavicle 0.000000 0.000000 
lhumerus -41.491622 32.377706 68.344978 
lradius 24.836087 
lwrist -58.503735 
lhand -20.373281 0.351810 
lfingers 0.000000 
lthumb 5.979456 30.247462 
rfemur -17.376057 1.618425 25.649792 
rtibia 28.284091 
rfoot -18.545039 -6.129056 
rtoes -25.859476 
lfemur -21.442131 4.455557 -15.917926 
ltibia 58.049074 
lfoot -11.261515 4.310693 
ltoes -39.470738 
62
root -8.404994 17.635728 -19.856560 6.813078 12.216313 -0.250436
lowerback -9.953784 0.331367 -0.245678 
upperback 2.663808 0.438704 0.458614 
thorax 8.418451 0.187114 0.699564 
lowerneck -8.136792 -2.561905 2.908589 
upperneck 0.785887 -3.615879 -2.474468 
head 1.532954 -1.850714 -1.412051 
rclavicle 0.000000 0.000000 
rhumerus -31.306453 -12.302734 -84.161697 
rradius 30.556341 
rwrist 28.928220 
rhand -17.495445 -16.096637 
rfingers 0.000000 
rthumb 8.757290 -45.894954 
lclavicle 0.000000 0.000000 
lhumerus -41.811191 32.759094 67.879778 
lradius 24.684036 
lwrist -59.047988 
lhand -20.449521 0.224536 
lfingers 0.000000 
lthumb 5.905871 30.122273 
rfemur -17.137945 1.677058 25.753141 
rtibia 28.419061 
rfoot -18.823522 -6.241682 
rtoes -25.988608 
lfemur -22.086432 3.885065 -15.940683 
ltibia 57.779435 
lfoot -11.749724 4.240166 
ltoes -39.053247 
63
root -8.410240 17.629752 -19.812546 6.751199 12.232751 -0.172242
lowerback -9.772517 0.388442 -0.283523 
upperback 2.691939 0.523433 0.414530 
thorax 8.342509 0.227954 0.686960 
lowerneck -8.140840 -2.588436 2.845255 
upperneck 0.840254 -3.646453 -2.413724 
head 1.552115 -1.864626 -1.383730 
rclavicle 0.000000 0.000000 
rhumerus -30.972270 -11.934347 -84.450846 
rradius 30.846250 
rwrist 28.639879 
rhand -17.476979 -16.268188 
rfingers 0.000000 
rthumb 8.775096 -46.065740 
lclavicle 0.000000 0.000000 
lhumerus -41.965535 32.658842 67.777093 
lradius 24.746144 
lwrist -58.939426 
lhand -20.275234 0.176970 
lfingers 0.000000 
lthumb 6.074119 30.069907 
rfemur -16.919207 1.894381 25.699666 
rtibia 28.615909 
rfoot -19.203774 -6.085777 
rtoes -23.836461 
lfemur -22.734757 3.330094 -16.055970 
ltibia 57.394466 
lfoot -12.069899 4.023784 
ltoes -38.975306 
64
root -8.411077 17.623539 -19.765584 6.707716 12.219142 -0.002296
lowerback -9.624165 0.446522 -0.369155 
upperback 2.727258 0.619250 0.323009 
thorax 8.293321 0.273026 0.652948 
lowerneck -8.060377 -2.641995 2.827337 
upperneck 0.793995 -3.717178 -2.329895 
head 1.522178 -1.897766 -1.353440 
rclavicle 0.000000 0.000000 
rhumerus -30.644774 -11.553306 -84.744624 
rradius 31.144073 
rwrist 28.114312 
rhand -17.362280 -16.289256 
rfingers 0.000000 
rthumb 8.885733 -46.082159 
lclavicle 0.000000 0.000000 
lhumerus -42.003374 32.381730 67.803169 
lradius 24.764694 
lwrist -58.553165 
lhand -20.052692 0.234895 
lfingers 0.000000 
lthumb 6.288942 30.121574 
rfemur -16.767169 1.828009 25.582668 
rtibia 28.827656 
rfoot -19.487852 -6.195023 
rtoes -24.193150 
lfemur -23.328200 2.789595 -16.294914 
ltibia 56.899170 
lfoot -12.502575 3.983764 
ltoes -39.558425 
65
root -8.415553 17.617057 -19.721400 6.618645 12.298576 0.051393
lowerback -9.444284 0.470377 -0.386622 
upperback 2.771520 0.655434 0.292181 
thorax 8.236314 0.290881 0.634455 
lowerneck -8.093054 -2.695977 2.918152 
upperneck 0.848134 -3.796018 -2.398773 
head 1.540870 -1.938305 -1.395665 
rclavicle 0.000000 0.000000 
rhumerus -30.323595 -10.783709 -85.089966 
rradius 31.444981 
rwrist 27.429558 
rhand -17.478477 -16.388441 
rfingers 0.000000 
rthumb 8.773646 -46.186113 
lclavicle 0.000000 0.000000 
lhumerus -42.105013 32.310255 67.720030 
lradius 24.794456 
lwrist -58.254591 
lhand -19.707265 0.168810 
lfingers 0.000000 
lthumb 6.622417 30.045261 
rfemur -16.537204 1.798371 25.608967 
rtibia 28.956041 
rfoot -19.978726 -6.213762 
rtoes -23.164923 
lfemur -23.883772 2.100889 -16.352304 
ltibia 56.359054 
lfoot -12.627119 3.836533 
ltoes -39.423857 
66
root -8.414096 17.612841 -19.671551 6.506866 12.205430 0.094778
lowerback -9.314713 0.554434 -0.355649 
upperback 2.833436 0.765914 0.264537 
thorax 8.227208 0.347026 0.604698 
lowerneck -8.163068 -2.755267 2.892046 
upperneck 0.991991 -3.872237 -2.416729 
head 1.597899 -1.976699 -1.403924 
rclavicle 0.000000 0.000000 
rhumerus -30.004034 -10.602234 -85.280653 
rradius 31.683716 
rwrist 27.556063 
rhand -17.496952 -16.471878 
rfingers 0.000000 
rthumb 8.755807 -46.270296 
lclavicle 0.000000 0.000000 
lhumerus -42.280024 32.441826 67.520267 
lradius 24.767566 
lwrist -58.232454 
lhand -19.532565 0.009609 
lfingers 0.000000 
lthumb 6.791073 29.880701 
rfemur -16.247431 1.742431 25.613770 
rtibia 29.008621 
rfoot -19.870827 -6.154364 
rtoes -23.930191 
lfemur -24.341816 1.663151 -16.453672 
ltibia 55.768515 
lfoot -12.865912 3.743642 
ltoes -39.906295 
